%TF.GenerationSoftware,KiCad,Pcbnew,8.0.1*%
%TF.CreationDate,2024-03-28T16:14:10+02:00*%
%TF.ProjectId,power,706f7765-722e-46b6-9963-61645f706362,rev?*%
%TF.SameCoordinates,Original*%
%TF.FileFunction,Soldermask,Top*%
%TF.FilePolarity,Negative*%
%FSLAX46Y46*%
G04 Gerber Fmt 4.6, Leading zero omitted, Abs format (unit mm)*
G04 Created by KiCad (PCBNEW 8.0.1) date 2024-03-28 16:14:10*
%MOMM*%
%LPD*%
G01*
G04 APERTURE LIST*
G04 Aperture macros list*
%AMRoundRect*
0 Rectangle with rounded corners*
0 $1 Rounding radius*
0 $2 $3 $4 $5 $6 $7 $8 $9 X,Y pos of 4 corners*
0 Add a 4 corners polygon primitive as box body*
4,1,4,$2,$3,$4,$5,$6,$7,$8,$9,$2,$3,0*
0 Add four circle primitives for the rounded corners*
1,1,$1+$1,$2,$3*
1,1,$1+$1,$4,$5*
1,1,$1+$1,$6,$7*
1,1,$1+$1,$8,$9*
0 Add four rect primitives between the rounded corners*
20,1,$1+$1,$2,$3,$4,$5,0*
20,1,$1+$1,$4,$5,$6,$7,0*
20,1,$1+$1,$6,$7,$8,$9,0*
20,1,$1+$1,$8,$9,$2,$3,0*%
G04 Aperture macros list end*
%ADD10RoundRect,0.102000X-0.700000X0.500000X-0.700000X-0.500000X0.700000X-0.500000X0.700000X0.500000X0*%
%ADD11C,6.204000*%
%ADD12RoundRect,0.102000X3.000000X3.000000X-3.000000X3.000000X-3.000000X-3.000000X3.000000X-3.000000X0*%
%ADD13RoundRect,0.250000X0.475000X-0.250000X0.475000X0.250000X-0.475000X0.250000X-0.475000X-0.250000X0*%
%ADD14RoundRect,0.102000X0.250000X-0.300000X0.250000X0.300000X-0.250000X0.300000X-0.250000X-0.300000X0*%
%ADD15RoundRect,0.056280X0.660720X0.345720X-0.660720X0.345720X-0.660720X-0.345720X0.660720X-0.345720X0*%
%ADD16RoundRect,0.102000X1.165000X0.780000X-1.165000X0.780000X-1.165000X-0.780000X1.165000X-0.780000X0*%
%ADD17RoundRect,0.250000X-0.475000X0.250000X-0.475000X-0.250000X0.475000X-0.250000X0.475000X0.250000X0*%
%ADD18R,1.041400X3.505200*%
%ADD19R,10.718800X12.014200*%
%ADD20RoundRect,0.250000X-0.262500X-0.450000X0.262500X-0.450000X0.262500X0.450000X-0.262500X0.450000X0*%
%ADD21RoundRect,0.102000X1.800000X-1.000000X1.800000X1.000000X-1.800000X1.000000X-1.800000X-1.000000X0*%
%ADD22RoundRect,0.102000X-0.400000X-0.400000X0.400000X-0.400000X0.400000X0.400000X-0.400000X0.400000X0*%
%ADD23R,2.794000X5.308600*%
%ADD24RoundRect,0.250000X0.450000X-0.262500X0.450000X0.262500X-0.450000X0.262500X-0.450000X-0.262500X0*%
%ADD25RoundRect,0.250000X-0.450000X0.262500X-0.450000X-0.262500X0.450000X-0.262500X0.450000X0.262500X0*%
%ADD26RoundRect,0.102000X0.800000X-0.550000X0.800000X0.550000X-0.800000X0.550000X-0.800000X-0.550000X0*%
%ADD27RoundRect,0.102000X0.800000X-0.800000X0.800000X0.800000X-0.800000X0.800000X-0.800000X-0.800000X0*%
%ADD28RoundRect,0.364800X-0.547200X1.207200X-0.547200X-1.207200X0.547200X-1.207200X0.547200X1.207200X0*%
%ADD29RoundRect,0.102000X1.000000X1.800000X-1.000000X1.800000X-1.000000X-1.800000X1.000000X-1.800000X0*%
%ADD30RoundRect,0.102000X-3.250000X-1.050000X3.250000X-1.050000X3.250000X1.050000X-3.250000X1.050000X0*%
%ADD31RoundRect,0.102000X-2.250000X-1.200000X2.250000X-1.200000X2.250000X1.200000X-2.250000X1.200000X0*%
%ADD32RoundRect,0.102000X3.250000X1.050000X-3.250000X1.050000X-3.250000X-1.050000X3.250000X-1.050000X0*%
%ADD33RoundRect,0.102000X2.250000X1.200000X-2.250000X1.200000X-2.250000X-1.200000X2.250000X-1.200000X0*%
%ADD34RoundRect,0.102000X-1.200000X-0.490000X1.200000X-0.490000X1.200000X0.490000X-1.200000X0.490000X0*%
%ADD35RoundRect,0.102000X1.200000X0.490000X-1.200000X0.490000X-1.200000X-0.490000X1.200000X-0.490000X0*%
%ADD36RoundRect,0.102000X-2.785000X-2.930000X2.785000X-2.930000X2.785000X2.930000X-2.785000X2.930000X0*%
%ADD37RoundRect,0.030700X0.856300X0.276300X-0.856300X0.276300X-0.856300X-0.276300X0.856300X-0.276300X0*%
%ADD38RoundRect,0.250000X0.312500X1.075000X-0.312500X1.075000X-0.312500X-1.075000X0.312500X-1.075000X0*%
%ADD39RoundRect,0.250000X0.262500X0.450000X-0.262500X0.450000X-0.262500X-0.450000X0.262500X-0.450000X0*%
%ADD40RoundRect,0.102000X1.016000X-0.330200X1.016000X0.330200X-1.016000X0.330200X-1.016000X-0.330200X0*%
%ADD41RoundRect,0.102000X-0.250000X0.300000X-0.250000X-0.300000X0.250000X-0.300000X0.250000X0.300000X0*%
%ADD42RoundRect,0.102000X-1.165000X-0.780000X1.165000X-0.780000X1.165000X0.780000X-1.165000X0.780000X0*%
%ADD43C,2.184000*%
%ADD44RoundRect,0.250000X0.250000X0.475000X-0.250000X0.475000X-0.250000X-0.475000X0.250000X-0.475000X0*%
%ADD45RoundRect,0.150000X0.150000X-0.825000X0.150000X0.825000X-0.150000X0.825000X-0.150000X-0.825000X0*%
%ADD46RoundRect,0.364800X1.207200X0.547200X-1.207200X0.547200X-1.207200X-0.547200X1.207200X-0.547200X0*%
%ADD47RoundRect,0.250000X-0.250000X-0.475000X0.250000X-0.475000X0.250000X0.475000X-0.250000X0.475000X0*%
%ADD48RoundRect,0.102000X-1.000000X-0.225000X1.000000X-0.225000X1.000000X0.225000X-1.000000X0.225000X0*%
G04 APERTURE END LIST*
D10*
%TO.C,Q3*%
X70142000Y-108796000D03*
X70142000Y-110696000D03*
X72342000Y-109746000D03*
%TD*%
D11*
%TO.C,J2*%
X124119000Y-72093000D03*
D12*
X131319000Y-72093000D03*
%TD*%
D13*
%TO.C,C1*%
X75097000Y-97234000D03*
X75097000Y-95334000D03*
%TD*%
D14*
%TO.C,D3*%
X71102000Y-100160000D03*
X70202000Y-100160000D03*
%TD*%
D15*
%TO.C,Q2*%
X69470000Y-104600000D03*
X69470000Y-102700000D03*
X67350000Y-103650000D03*
%TD*%
D16*
%TO.C,D6*%
X119801000Y-106637000D03*
X115521000Y-106637000D03*
%TD*%
D17*
%TO.C,C10*%
X107228000Y-65809000D03*
X107228000Y-67709000D03*
%TD*%
D18*
%TO.C,MOSFETE1*%
X96433000Y-118079700D03*
D19*
X93893000Y-127084000D03*
D18*
X91353000Y-118079700D03*
%TD*%
D20*
%TO.C,R8*%
X66668000Y-82380000D03*
X68493000Y-82380000D03*
%TD*%
D21*
%TO.C,D4*%
X133009000Y-79234000D03*
X133009000Y-86034000D03*
%TD*%
D22*
%TO.C,D2*%
X75414000Y-82380000D03*
X73764000Y-82380000D03*
%TD*%
D23*
%TO.C,L2*%
X103583100Y-127211000D03*
X113666900Y-127211000D03*
%TD*%
D24*
%TO.C,R21*%
X119801000Y-123424500D03*
X119801000Y-121599500D03*
%TD*%
D25*
%TO.C,R13*%
X72342000Y-118716000D03*
X72342000Y-120541000D03*
%TD*%
D24*
%TO.C,R25*%
X63706000Y-124755500D03*
X63706000Y-122930500D03*
%TD*%
D25*
%TO.C,R22*%
X112562000Y-68259500D03*
X112562000Y-70084500D03*
%TD*%
%TO.C,R1*%
X63706000Y-126844000D03*
X63706000Y-128669000D03*
%TD*%
D17*
%TO.C,C3*%
X81193000Y-95334000D03*
X81193000Y-97234000D03*
%TD*%
D26*
%TO.C,R20*%
X109567000Y-108772500D03*
D27*
X106667000Y-109922500D03*
D26*
X109567000Y-111072500D03*
%TD*%
D28*
%TO.C,C6*%
X105577000Y-100437000D03*
X105577000Y-95207000D03*
%TD*%
D29*
%TO.C,D8*%
X103447000Y-116670000D03*
X110247000Y-116670000D03*
%TD*%
D30*
%TO.C,J1*%
X66137000Y-67950000D03*
D31*
X77637000Y-67950000D03*
D30*
X66137000Y-73950000D03*
D31*
X77637000Y-73950000D03*
%TD*%
D13*
%TO.C,C9*%
X106720000Y-106190000D03*
X106720000Y-104290000D03*
%TD*%
D32*
%TO.C,J3*%
X133079000Y-99350000D03*
D33*
X121579000Y-99350000D03*
D32*
X133079000Y-93350000D03*
D33*
X121579000Y-93350000D03*
%TD*%
D34*
%TO.C,U1*%
X80422000Y-101369250D03*
D35*
X80422000Y-105929250D03*
D36*
X87092000Y-103649250D03*
%TD*%
D25*
%TO.C,R26*%
X72342000Y-122827000D03*
X72342000Y-124652000D03*
%TD*%
D37*
%TO.C,U2*%
X84610000Y-120500000D03*
X84610000Y-119850000D03*
X84610000Y-119200000D03*
X84610000Y-118550000D03*
X78870000Y-118550000D03*
X78870000Y-119200000D03*
X78870000Y-119850000D03*
X78870000Y-120500000D03*
%TD*%
D25*
%TO.C,R18*%
X86273000Y-111566500D03*
X86273000Y-113391500D03*
%TD*%
D17*
%TO.C,C8*%
X96814000Y-69812000D03*
X96814000Y-71712000D03*
%TD*%
D38*
%TO.C,R19*%
X108309500Y-72474000D03*
X105384500Y-72474000D03*
%TD*%
D39*
%TO.C,R12*%
X93154500Y-96477000D03*
X91329500Y-96477000D03*
%TD*%
D40*
%TO.C,Q1*%
X99277800Y-84158000D03*
X99277800Y-82888000D03*
X99277800Y-81618000D03*
X99277800Y-80348000D03*
X93131000Y-80348000D03*
X93131000Y-81618000D03*
X93131000Y-82888000D03*
X93131000Y-84158000D03*
%TD*%
D24*
%TO.C,R15*%
X63579000Y-115715000D03*
X63579000Y-113890000D03*
%TD*%
D41*
%TO.C,D1*%
X74081000Y-86698000D03*
X74981000Y-86698000D03*
%TD*%
D39*
%TO.C,R10*%
X75779000Y-100414000D03*
X73954000Y-100414000D03*
%TD*%
D25*
%TO.C,R2*%
X63706000Y-130908000D03*
X63706000Y-132733000D03*
%TD*%
D42*
%TO.C,D7*%
X115521000Y-113876000D03*
X119801000Y-113876000D03*
%TD*%
D25*
%TO.C,R9*%
X81193000Y-90762000D03*
X81193000Y-92587000D03*
%TD*%
D17*
%TO.C,C2*%
X85130000Y-69934000D03*
X85130000Y-71834000D03*
%TD*%
%TO.C,C7*%
X90718000Y-69934000D03*
X90718000Y-71834000D03*
%TD*%
D43*
%TO.C,F1*%
X136385000Y-60536000D03*
X113885000Y-60536000D03*
%TD*%
D13*
%TO.C,C5*%
X75097000Y-105875000D03*
X75097000Y-103975000D03*
%TD*%
D25*
%TO.C,R6*%
X72342000Y-130955000D03*
X72342000Y-132780000D03*
%TD*%
D44*
%TO.C,C13*%
X114655000Y-100160000D03*
X112755000Y-100160000D03*
%TD*%
D39*
%TO.C,R14*%
X93131000Y-90762000D03*
X91306000Y-90762000D03*
%TD*%
D45*
%TO.C,U3*%
X92242000Y-113557000D03*
X93512000Y-113557000D03*
X94782000Y-113557000D03*
X96052000Y-113557000D03*
X96052000Y-108607000D03*
X94782000Y-108607000D03*
X93512000Y-108607000D03*
X92242000Y-108607000D03*
%TD*%
D25*
%TO.C,R16*%
X72342000Y-113683000D03*
X72342000Y-115508000D03*
%TD*%
D46*
%TO.C,C11*%
X97628000Y-60409000D03*
X102858000Y-60409000D03*
%TD*%
D25*
%TO.C,R3*%
X63809500Y-118866500D03*
X63809500Y-120691500D03*
%TD*%
%TO.C,R11*%
X80177000Y-111820500D03*
X80177000Y-113645500D03*
%TD*%
D47*
%TO.C,C4*%
X80917000Y-126002000D03*
X82817000Y-126002000D03*
%TD*%
D48*
%TO.C,IC1*%
X81995000Y-80391000D03*
X81995000Y-81391000D03*
X81995000Y-82391000D03*
X81995000Y-83391000D03*
X81995000Y-84391000D03*
X86995000Y-84391000D03*
X86995000Y-83391000D03*
X86995000Y-82391000D03*
X86995000Y-81391000D03*
X86995000Y-80391000D03*
%TD*%
D25*
%TO.C,R4*%
X86527000Y-90889000D03*
X86527000Y-92714000D03*
%TD*%
D20*
%TO.C,R7*%
X66818500Y-86190000D03*
X68643500Y-86190000D03*
%TD*%
D13*
%TO.C,C12*%
X101132000Y-106378000D03*
X101132000Y-104478000D03*
%TD*%
D23*
%TO.C,L1*%
X103545000Y-84666000D03*
X113628800Y-84666000D03*
%TD*%
D21*
%TO.C,D5*%
X121579000Y-79332000D03*
X121579000Y-86132000D03*
%TD*%
D24*
%TO.C,R5*%
X72342000Y-128565500D03*
X72342000Y-126740500D03*
%TD*%
%TO.C,R17*%
X63452000Y-110889000D03*
X63452000Y-109064000D03*
%TD*%
M02*
